<svg xmlns="http://www.w3.org/2000/svg" xmlns:xlink="http://www.w3.org/1999/xlink" fill="none" version="1.1" width="166" height="58" viewBox="0 0 166 58"><defs><clipPath id="master_svg0_0_2661"><rect x="0" y="0" width="166" height="58" rx="0"/></clipPath></defs><g clip-path="url(#master_svg0_0_2661)"><g><g><path d="M8.98433,39.5202C8.98433,39.5202,12.3009,39.5202,12.3009,39.5202C12.3009,35.5368,17.2562,30.6377,21.2852,30.6377C21.2852,30.6377,27.6762,30.6377,27.6762,30.6377C27.6762,30.6377,27.6762,36.9526,27.6762,36.9526C27.6762,40.936,22.7209,45.8351,18.6918,45.8351C18.6918,45.8351,18.6918,47.4728,18.6918,47.4728C18.6918,47.4728,18.6918,49.1105,18.6918,49.1105C22.7209,49.1105,27.6762,54.0096,27.6762,57.993C27.6762,57.993,30.9927,57.993,30.9927,57.993C30.9927,54.0096,35.948,49.1105,39.9771,49.1105C39.9771,49.1105,39.9771,47.4728,39.9771,47.4728C39.9771,47.4728,39.9771,45.8351,39.9771,45.8351C35.948,45.8351,30.9927,40.936,30.9927,36.9526C30.9927,36.9526,30.9927,30.6377,30.9927,30.6377C30.9927,30.6377,37.3837,30.6377,37.3837,30.6377C41.4127,30.6377,46.368,35.5368,46.368,39.5202C46.368,39.5202,49.6846,39.5202,49.6846,39.5202C49.6846,35.5368,54.6399,30.6377,58.6689,30.6377C58.6689,30.6377,58.6689,27.3588,58.6689,27.3588C54.6399,27.3588,49.6846,22.4597,49.6846,18.4763C49.6846,18.4763,46.368,18.4763,46.368,18.4763C46.368,22.4597,41.4127,27.3588,37.3837,27.3588C37.3837,27.3588,30.9892,27.3588,30.9892,27.3588C30.9892,27.3588,30.9892,21.0438,30.9892,21.0438C30.9892,17.0605,35.9445,12.1614,39.9735,12.1614C39.9735,12.1614,39.9735,10.5237,39.9735,10.5237C39.9735,10.5237,39.9735,8.88596,39.9735,8.88596C35.9445,8.88244,30.9892,3.98336,30.9892,0C30.9892,0,29.3327,0,29.3327,0C29.3327,0,27.6762,0,27.6762,0C27.6762,3.98336,22.7209,8.88244,18.6918,8.88244C18.6918,8.88244,18.6918,10.5202,18.6918,10.5202C18.6918,10.5202,18.6918,12.1579,18.6918,12.1579C22.7209,12.1579,27.6762,17.057,27.6762,21.0403C27.6762,21.0403,27.6762,27.3588,27.6762,27.3588C27.6762,27.3588,21.2852,27.3588,21.2852,27.3588C17.2562,27.3588,12.3009,22.4597,12.3009,18.4763C12.3009,18.4763,8.98433,18.4763,8.98433,18.4763C8.98433,22.4597,4.02906,27.3588,0,27.3588C0,27.3588,0,30.6377,0,30.6377C4.02906,30.6377,8.98433,35.5368,8.98433,39.5202Z" fill="#F39B4B" fill-opacity="1"/></g></g><g><g><path d="M105.01906791381836,28.41530377500309C105.01906791381836,28.41530377500309,114.45586791381837,28.41530377500309,114.45586791381837,28.41530377500309C114.45586791381837,28.41530377500309,114.45586791381837,40.749303775003085,114.45586791381837,40.749303775003085C113.56166791381835,41.55590377500309,112.39676791381837,42.16870377500309,110.96116791381836,42.58430377500309C109.52556791381836,42.99990377500309,108.05776791381837,43.20770377500309,106.55806791381836,43.20770377500309C104.79466791381836,43.20770377500309,103.14171791381835,42.90830377500309,101.60276791381835,42.30960377500309C100.06381791381835,41.710803775003086,98.72792791381836,40.80570377500309,97.59508791381836,39.597603775003094C96.46224791381836,38.38610377500309,95.56809791381836,36.89280377500309,94.90905491381837,35.110603775003085C94.25001391381836,33.328503775003085,93.92226791381836,31.24000377500309,93.92226791381836,28.84500377500309C93.92226791381836,26.319803775003088,94.31769491381836,24.17488377500309,95.10497791381836,22.403323775003088C95.89582791381837,20.63529377500309,96.91466791381836,19.18423377500309,98.16506791381836,18.05015377500309C99.41546791381836,16.91960377500309,100.81547791381836,16.09193377500309,102.36867791381836,15.570682775003089C103.92187791381836,15.04942977500309,105.46086791381836,14.788803775003089,106.98906791381836,14.788803775003089C108.56726791381836,14.788803775003089,109.88526791381835,14.91207277500309,110.93626791381836,15.15861177500309C111.98716791381835,15.405150775003088,112.94896791381836,15.725649775003088,113.81816791381836,16.11659377500309C113.81816791381836,16.11659377500309,113.81816791381836,24.196013775003088,113.81816791381836,24.196013775003088C113.81816791381836,24.196013775003088,109.47566791381836,24.196013775003088,109.47566791381836,24.196013775003088C109.47566791381836,24.196013775003088,109.47566791381836,19.86398377500309,109.47566791381836,19.86398377500309C109.26546791381836,19.81115377500309,109.05526791381835,19.75832377500309,108.84506791381835,19.70901377500309C108.31786791381836,19.606873775003088,107.74076791381836,19.554043775003088,107.10666791381836,19.554043775003088C106.02726791381836,19.554043775003088,105.02626791381836,19.73718377500309,104.10716791381836,20.099953775003087C103.18446791381837,20.46623377500309,102.39005791381837,21.029753775003087,101.71676791381836,21.79754377500309C101.04703791381836,22.56534377500309,100.52692791381835,23.547973775003086,100.15643791381837,24.74544377500309C99.78951791381836,25.94290377500309,99.60427791381836,27.37280377500309,99.60427791381836,29.03870377500309C99.60427791381836,30.52150377500309,99.78951791381836,31.84930377500309,100.15643791381837,33.02210377500309C100.52336791381836,34.19140377500309,101.03991791381836,35.18110377500309,101.69539791381835,35.98760377500309C102.35443791381836,36.79410377500309,103.13815791381836,37.40700377500309,104.04296791381836,37.82260377500309C104.95136791381836,38.238203775003086,105.93106791381837,38.44600377500309,106.98556791381836,38.44600377500309C107.66946791381835,38.44600377500309,108.29296791381836,38.36850377500309,108.85936791381836,38.21350377500309C109.42576791381836,38.05850377500309,109.81406791381836,37.900003775003086,110.02426791381836,37.74510377500309C110.02426791381836,37.74510377500309,110.02426791381836,32.321203775003085,110.02426791381836,32.321203775003085C110.02426791381836,32.321203775003085,105.01906791381836,32.321203775003085,105.01906791381836,32.321203775003085C105.01906791381836,32.321203775003085,105.01906791381836,28.41530377500309,105.01906791381836,28.41530377500309Z" fill="#F39B4B" fill-opacity="1"/></g><g><path d="M134.4265554321289,31.535832159614564C134.4265554321289,31.535832159614564,139.3212554321289,31.535832159614564,139.3212554321289,31.535832159614564C139.3212554321289,31.535832159614564,139.3212554321289,42.65823215961456,139.3212554321289,42.65823215961456C139.3212554321289,42.65823215961456,121.1602554321289,42.65823215961456,121.1602554321289,42.65823215961456C121.1602554321289,42.65823215961456,121.1602554321289,15.338232159614563,121.1602554321289,15.338232159614563C121.1602554321289,15.338232159614563,126.5679654321289,15.338232159614563,126.5679654321289,15.338232159614563C126.5679654321289,15.338232159614563,126.5679654321289,37.90003215961457,126.5679654321289,37.90003215961457C126.5679654321289,37.90003215961457,134.4230554321289,37.90003215961457,134.4230554321289,37.90003215961457C134.4230554321289,37.90003215961457,134.4230554321289,31.535832159614564,134.4230554321289,31.535832159614564C134.4230554321289,31.535832159614564,134.4265554321289,31.535832159614564,134.4265554321289,31.535832159614564Z" fill="#F39B4B" fill-opacity="1"/></g><g><path d="M145.86539459228516,15.338231910648346C146.10407459228514,15.313577910648347,146.51731859228516,15.274836910648347,147.10867459228515,15.222007910648346C147.70003459228516,15.169177910648346,148.37331459228517,15.123391910648346,149.12141459228516,15.084649910648347C149.87308459228515,15.045908510648346,150.64612459228516,15.014209810648346,151.45122459228514,14.986033910648345C152.25275459228516,14.961380010648346,152.97235459228514,14.947291910648346,153.60289459228517,14.947291910648346C156.05029459228516,14.947291910648346,158.07729459228517,15.299490910648347,159.68389459228516,16.000361910648344C161.29049459228514,16.704761910648347,162.55869459228515,17.673301910648345,163.49209459228516,18.909521910648344C164.42539459228516,20.145741910648347,165.07729459228517,21.603841910648345,165.44779459228516,23.280301910648348C165.81479459228515,24.960291910648344,165.99999459228516,26.788191910648344,165.99999459228516,28.763991910648347C165.99999459228516,30.560191910648346,165.81479459228515,32.31769191064835,165.44779459228516,34.032891910648345C165.07729459228517,35.751591910648344,164.41469459228514,37.28019191064834,163.45289459228516,38.618491910648345C162.49099459228515,39.96039191064835,161.16229459228515,41.03809191064835,159.46659459228516,41.85879191064835C157.77089459228515,42.67939191064835,155.59070459228516,43.087891910648345,152.93316459228515,43.087891910648345C152.51280459228516,43.087891910648345,151.97132459228516,43.07389191064834,151.31585459228515,43.04919191064835C150.65680459228517,43.02449191064835,149.98707459228515,42.98929191064835,149.30309459228516,42.95059191064834C148.61911459228514,42.91179191064835,147.96008459228517,42.87309191064834,147.32954459228515,42.83439191064835C146.69899859228516,42.79559191064834,146.21094959228515,42.74979191064834,145.86896045228517,42.69699191064835C145.86896045228517,42.69699191064835,145.86896045228517,15.338231910648346,145.86896045228517,15.338231910648346C145.86896045228517,15.338231910648346,145.86539459228516,15.338231910648346,145.86539459228516,15.338231910648346ZM153.80238459228516,19.709011910648346C153.30365459228517,19.709011910648346,152.81561459228516,19.730141910648346,152.34181459228515,19.768881910648346C151.86802459228517,19.807631910648347,151.51177459228515,19.839321910648344,151.27665459228515,19.867501910648347C151.27665459228515,19.867501910648347,151.27665459228515,38.174791910648345,151.27665459228515,38.174791910648345C151.37996459228515,38.199391910648345,151.54028459228516,38.220591910648345,151.75046459228517,38.23459191064835C151.96064459228515,38.24869191064835,152.17794459228514,38.259291910648344,152.40237459228516,38.27339191064834C152.62680459228517,38.28749191064834,152.84411459228517,38.29799191064835,153.05429459228515,38.31209191064835C153.26447459228515,38.32619191064835,153.43546459228514,38.32969191064835,153.56726459228517,38.32969191064835C155.09553459228516,38.32969191064835,156.31029459228515,38.051491910648345,157.21869459228515,37.49149191064835C158.12709459228515,36.93149191064835,158.80399459228516,36.19889191064834,159.25279459228517,35.286691910648344C159.70169459228515,34.37459191064835,159.99029459228515,33.349691910648346,160.12209459228515,32.20149191064834C160.25389459228515,31.056791910648347,160.31799459228515,29.912191910648346,160.31799459228515,28.767591910648346C160.31799459228515,27.777891910648346,160.25739459228515,26.752991910648348,160.13989459228515,25.682291910648345C160.02229459228516,24.615131910648344,159.74449459228515,23.639541910648347,159.30979459228516,22.755531910648344C158.87519459228517,21.871511910648344,158.22329459228516,21.142461910648347,157.35409459228515,20.568371910648345C156.48489459228514,19.994291910648347,155.30215459228515,19.709011910648346,153.80238459228516,19.709011910648346Z" fill="#F39B4B" fill-opacity="1"/></g><g><path d="M89.90750556695038,42.66173215961456C89.90750556695038,42.66173215961456,81.02290556695039,15.338232159614563,81.02290556695039,15.338232159614563C81.02290556695039,15.338232159614563,75.61517556695038,15.338232159614563,75.61517556695038,15.338232159614563C75.61517556695038,15.338232159614563,66.69140556695038,42.66173215961456,66.69140556695038,42.66173215961456C66.69140556695038,42.66173215961456,72.09910556695039,42.66173215961456,72.09910556695039,42.66173215961456C72.09910556695039,42.66173215961456,72.12047556695038,42.591332159614566,72.12047556695038,42.591332159614566C72.12047556695038,42.591332159614566,72.17034556695037,42.66173215961456,72.17034556695037,42.66173215961456C72.17034556695037,42.66173215961456,82.22340556695038,35.99813215961456,82.22340556695038,35.99813215961456C82.22340556695038,35.99813215961456,84.22190556695038,42.66173215961456,84.22190556695038,42.66173215961456C84.22190556695038,42.66173215961456,89.90750556695038,42.66173215961456,89.90750556695038,42.66173215961456ZM74.46452556695039,34.892232159614565C74.46452556695039,34.892232159614565,78.02330556695038,23.185212159614565,78.02330556695038,23.185212159614565C78.02330556695038,23.185212159614565,78.37960556695037,23.185212159614565,78.37960556695037,23.185212159614565C78.37960556695037,23.185212159614565,80.65950556695037,30.785632159614565,80.65950556695037,30.785632159614565C80.65950556695037,30.785632159614565,74.46452556695039,34.892232159614565,74.46452556695039,34.892232159614565Z" fill="#F39B4B" fill-opacity="1"/></g></g></g></svg>