<svg xmlns="http://www.w3.org/2000/svg" xmlns:xlink="http://www.w3.org/1999/xlink" fill="none" version="1.1" width="107.55380249023438" height="47.99611473083496" viewBox="0 0 107.55380249023438 47.99611473083496"><defs><filter id="master_svg0_0_2716" filterUnits="objectBoundingBox" color-interpolation-filters="sRGB" x="-8" y="-4" width="107.55380249023438" height="47.99611473083496"><feFlood flood-opacity="0" result="BackgroundImageFix"/><feColorMatrix in="SourceAlpha" type="matrix" values="0 0 0 0 0 0 0 0 0 0 0 0 0 0 0 0 0 0 127 0"/><feOffset dy="4" dx="0"/><feGaussianBlur stdDeviation="2"/><feColorMatrix type="matrix" values="0 0 0 0 0 0 0 0 0 0 0 0 0 0 0 0 0 0 0.25 0"/><feBlend mode="normal" in2="BackgroundImageFix" result="effect1_dropShadow"/><feBlend mode="normal" in="SourceGraphic" in2="effect1_dropShadow" result="shape"/></filter><clipPath id="master_svg1_0_2716"><rect x="8" y="4" width="91.55380249023438" height="31.99611473083496" rx="0"/></clipPath></defs><g filter="url(#master_svg0_0_2716)"><g clip-path="url(#master_svg1_0_2716)"><g><g><path d="M12.97927,25.8042C12.97927,25.8042,14.81737,25.8042,14.81737,25.8042C14.81737,23.6065,17.563670000000002,20.9036,19.796599999999998,20.9036C19.796599999999998,20.9036,23.3386,20.9036,23.3386,20.9036C23.3386,20.9036,23.3386,24.3877,23.3386,24.3877C23.3386,26.5854,20.5923,29.2883,18.359299999999998,29.2883C18.359299999999998,29.2883,18.359299999999998,30.1919,18.359299999999998,30.1919C18.359299999999998,30.1919,18.359299999999998,31.0955,18.359299999999998,31.0955C20.5923,31.0955,23.3386,33.7984,23.3386,35.9961C23.3386,35.9961,25.1767,35.9961,25.1767,35.9961C25.1767,33.7984,27.923,31.0955,30.156,31.0955C30.156,31.0955,30.156,30.1919,30.156,30.1919C30.156,30.1919,30.156,29.2883,30.156,29.2883C27.923,29.2883,25.1767,26.5854,25.1767,24.3877C25.1767,24.3877,25.1767,20.9036,25.1767,20.9036C25.1767,20.9036,28.7187,20.9036,28.7187,20.9036C30.9516,20.9036,33.697900000000004,23.6065,33.697900000000004,25.8042C33.697900000000004,25.8042,35.536,25.8042,35.536,25.8042C35.536,23.6065,38.2823,20.9036,40.5153,20.9036C40.5153,20.9036,40.5153,19.0945,40.5153,19.0945C38.2823,19.0945,35.536,16.3915,35.536,14.1938C35.536,14.1938,33.697900000000004,14.1938,33.697900000000004,14.1938C33.697900000000004,16.3915,30.9516,19.0945,28.7187,19.0945C28.7187,19.0945,25.1747,19.0945,25.1747,19.0945C25.1747,19.0945,25.1747,15.6104,25.1747,15.6104C25.1747,13.41268,27.921,10.70974,30.154,10.70974C30.154,10.70974,30.154,9.80617,30.154,9.80617C30.154,9.80617,30.154,8.9026,30.154,8.9026C27.921,8.90066,25.1747,6.19772,25.1747,4C25.1747,4,24.2567,4,24.2567,4C24.2567,4,23.3386,4,23.3386,4C23.3386,6.19772,20.5923,8.90066,18.359299999999998,8.90066C18.359299999999998,8.90066,18.359299999999998,9.80423,18.359299999999998,9.80423C18.359299999999998,9.80423,18.359299999999998,10.707799999999999,18.359299999999998,10.707799999999999C20.5923,10.707799999999999,23.3386,13.41074,23.3386,15.6085C23.3386,15.6085,23.3386,19.0945,23.3386,19.0945C23.3386,19.0945,19.796599999999998,19.0945,19.796599999999998,19.0945C17.563670000000002,19.0945,14.81737,16.3915,14.81737,14.1938C14.81737,14.1938,12.97927,14.1938,12.97927,14.1938C12.97927,16.3915,10.23297,19.0945,8,19.0945C8,19.0945,8,20.9036,8,20.9036C10.23297,20.9036,12.97927,23.6065,12.97927,25.8042Z" fill="#FAE6D5" fill-opacity="1"/></g></g><g><g><path d="M65.75715334777831,19.676467265992077C65.75715334777831,19.676467265992077,70.98720334777832,19.676467265992077,70.98720334777832,19.676467265992077C70.98720334777832,19.676467265992077,70.98720334777832,26.481367265992077,70.98720334777832,26.481367265992077C70.49160334777832,26.926367265992077,69.84600334777832,27.264467265992074,69.05034334777832,27.493767265992076C68.25468334777833,27.72306726599208,67.44126334777832,27.837767265992078,66.61006334777832,27.837767265992078C65.63277334777833,27.837767265992078,64.71668334777831,27.67256726599208,63.86376334777832,27.342267265992078C63.01085334777832,27.011867265992077,62.270483347778324,26.51246726599208,61.64264334777832,25.845967265992076C61.01480334777832,25.177567265992074,60.51924934777832,24.353667265992076,60.15399734777832,23.370367265992076C59.78874634777832,22.387167265992076,59.60710334777832,21.234877265992075,59.60710334777832,19.913527265992077C59.60710334777832,18.52027726599208,59.82625534777832,17.33689726599208,60.26258334777832,16.359487265992076C60.70088334777832,15.384017265992076,61.26554334777832,14.583437265992076,61.95853334777832,13.957737265992076C62.65152334777832,13.333977265992077,63.42743334777832,12.877337265992077,64.28824334777832,12.589749265992076C65.14905334777832,12.302161265992076,66.00197334777832,12.158367265992077,66.84895334777832,12.158367265992077C67.72358334777832,12.158367265992077,68.45409334777833,12.226377765992076,69.03652334777831,12.362399265992076C69.61890334777831,12.498420265992076,70.15200334777832,12.675248265992076,70.63380334777833,12.890939265992076C70.63380334777833,12.890939265992076,70.63380334777833,17.348557265992078,70.63380334777833,17.348557265992078C70.63380334777833,17.348557265992078,68.22704334777832,17.348557265992078,68.22704334777832,17.348557265992078C68.22704334777832,17.348557265992078,68.22704334777832,14.958467265992077,68.22704334777832,14.958467265992077C68.11056334777832,14.929317265992076,67.99407334777833,14.900167265992076,67.87759334777832,14.872967265992077C67.58539334777832,14.816617265992075,67.26554334777832,14.787467265992078,66.91411334777833,14.787467265992078C66.31589334777831,14.787467265992078,65.76110334777832,14.888507265992077,65.25172334777832,15.088657265992076C64.74037334777832,15.290747265992076,64.30009334777831,15.601647265992076,63.92694334777832,16.025257265992078C63.55577334777832,16.448867265992078,63.26751334777832,16.991017265992078,63.06218334777832,17.651687265992077C62.85883334777832,18.312367265992076,62.75616334777832,19.101287265992077,62.75616334777832,20.020397265992077C62.75616334777832,20.838477265992076,62.85883334777832,21.571047265992078,63.06218334777832,22.218167265992076C63.26554334777832,22.86326726599208,63.55182334777832,23.409267265992078,63.91510334777832,23.85426726599208C64.28035334777832,24.29926726599208,64.71470334777833,24.637367265992076,65.21618334777833,24.866667265992078C65.71964334777832,25.095967265992076,66.26258334777832,25.210567265992076,66.84698334777832,25.210567265992076C67.22606334777832,25.210567265992076,67.57156334777832,25.167867265992076,67.88548334777832,25.082367265992076C68.19940334777831,24.996867265992076,68.41460334777832,24.909367265992074,68.53109334777832,24.823867265992078C68.53109334777832,24.823867265992078,68.53109334777832,21.831427265992076,68.53109334777832,21.831427265992076C68.53109334777832,21.831427265992076,65.75715334777831,21.831427265992076,65.75715334777831,21.831427265992076C65.75715334777831,21.831427265992076,65.75715334777831,19.676467265992077,65.75715334777831,19.676467265992077Z" fill="#FAE6D5" fill-opacity="1"/></g><g><path d="M82.05527606384277,21.39810016784668C82.05527606384277,21.39810016784668,84.76805606384278,21.39810016784668,84.76805606384278,21.39810016784668C84.76805606384278,21.39810016784668,84.76805606384278,27.53460016784668,84.76805606384278,27.53460016784668C84.76805606384278,27.53460016784668,74.70285606384277,27.53460016784668,74.70285606384277,27.53460016784668C74.70285606384277,27.53460016784668,74.70285606384277,12.46150016784668,74.70285606384277,12.46150016784668C74.70285606384277,12.46150016784668,77.69989606384277,12.46150016784668,77.69989606384277,12.46150016784668C77.69989606384277,12.46150016784668,77.69989606384277,24.90940016784668,77.69989606384277,24.90940016784668C77.69989606384277,24.90940016784668,82.05330606384277,24.90940016784668,82.05330606384277,24.90940016784668C82.05330606384277,24.90940016784668,82.05330606384277,21.39810016784668,82.05330606384277,21.39810016784668C82.05330606384277,21.39810016784668,82.05527606384277,21.39810016784668,82.05527606384277,21.39810016784668Z" fill="#FAE6D5" fill-opacity="1"/></g><g><path d="M88.39485931396484,12.461499996260166C88.52713931396484,12.447897996260167,88.75616631396484,12.426523996260165,89.08390631396485,12.397375996260166C89.41164931396484,12.368228996260166,89.78478931396485,12.342967796260167,90.19939931396485,12.321592996260167C90.61598931396485,12.300218196260166,91.04441931396484,12.282729196260167,91.49061931396484,12.267183896260166C91.93483931396484,12.253581766260167,92.33365931396484,12.245808996260166,92.68310931396485,12.245808996260166C94.03947931396485,12.245808996260166,95.16287931396485,12.440125996260166,96.05329931396484,12.826814996260167C96.94372931396484,13.215446996260166,97.64658931396484,13.749818996260167,98.16385931396485,14.431868996260166C98.68115931396484,15.113918996260166,99.04245931396484,15.918388996260166,99.24775931396485,16.843328996260166C99.45115931396484,17.770218996260166,99.55375931396485,18.778718996260167,99.55375931396485,19.868838996260166C99.55375931396485,20.859848996260165,99.45115931396484,21.829488996260167,99.24775931396485,22.775808996260167C99.04245931396484,23.724108996260167,98.67525931396484,24.567408996260166,98.14213931396485,25.30580899626017C97.60906931396484,26.046108996260166,96.87264931396484,26.640708996260166,95.93286931396484,27.093508996260166C94.99308931396484,27.546308996260166,93.78478931396484,27.771708996260166,92.31193931396484,27.771708996260166C92.07896931396485,27.771708996260166,91.77886931396485,27.763908996260167,91.41558931396484,27.750308996260166C91.05033931396484,27.736708996260166,90.67915931396485,27.717308996260165,90.30008931396485,27.695908996260165C89.92101931396485,27.674508996260165,89.55576931396484,27.653108996260165,89.20631331396484,27.631808996260165C88.85685631396484,27.610408996260166,88.58637131396485,27.585108996260168,88.39683557396485,27.556008996260168C88.39683557396485,27.556008996260168,88.39683557396485,12.461499996260166,88.39683557396485,12.461499996260166C88.39683557396485,12.461499996260166,88.39485931396484,12.461499996260166,88.39485931396484,12.461499996260166ZM92.79367931396484,14.872968996260166C92.51726931396485,14.872968996260166,92.24678931396484,14.884628996260165,91.98419931396484,14.905998996260166C91.72161931396485,14.927378996260167,91.52417931396485,14.944858996260166,91.39386931396484,14.960408996260167C91.39386931396484,14.960408996260167,91.39386931396484,25.061008996260167,91.39386931396484,25.061008996260167C91.45112931396484,25.074608996260167,91.53997931396485,25.08620899626017,91.65645931396485,25.094008996260165C91.77294931396484,25.101808996260168,91.89337931396484,25.10760899626017,92.01775931396485,25.115408996260165C92.14214931396485,25.123108996260164,92.26257931396485,25.12900899626017,92.37906931396485,25.136708996260168C92.49555931396485,25.144508996260164,92.59031931396484,25.146508996260167,92.66336931396485,25.146508996260167C93.51035931396484,25.146508996260167,94.18360931396484,24.992908996260166,94.68705931396484,24.684008996260168C95.19051931396484,24.375008996260167,95.56563931396484,23.970808996260168,95.81440931396484,23.467608996260168C96.06316931396485,22.964308996260165,96.22309931396484,22.398808996260165,96.29614931396485,21.76535899626017C96.36919931396484,21.133838996260167,96.40472931396485,20.50230899626017,96.40472931396485,19.870778996260167C96.40472931396485,19.324748996260166,96.37116931396484,18.759288996260167,96.30601931396484,18.168568996260166C96.24085931396485,17.579788996260167,96.08686931396484,17.041538996260165,95.84599931396484,16.553798996260166C95.60512931396484,16.066068996260167,95.24381931396485,15.663828996260166,94.76208931396485,15.347098996260167C94.28034931396485,15.030358996260166,93.62486931396484,14.872968996260166,92.79367931396484,14.872968996260166Z" fill="#FAE6D5" fill-opacity="1"/></g><g><path d="M57.38199962322707,27.53660016784668C57.38199962322707,27.53660016784668,52.458039623227066,12.46150016784668,52.458039623227066,12.46150016784668C52.458039623227066,12.46150016784668,49.46099962322707,12.46150016784668,49.46099962322707,12.46150016784668C49.46099962322707,12.46150016784668,44.515299623227065,27.53660016784668,44.515299623227065,27.53660016784668C44.515299623227065,27.53660016784668,47.512339623227064,27.53660016784668,47.512339623227064,27.53660016784668C47.512339623227064,27.53660016784668,47.52417962322706,27.49770016784668,47.52417962322706,27.49770016784668C47.52417962322706,27.49770016784668,47.55181962322707,27.53660016784668,47.55181962322707,27.53660016784668C47.55181962322707,27.53660016784668,53.12338962322707,23.86010016784668,53.12338962322707,23.86010016784668C53.12338962322707,23.86010016784668,54.23098962322707,27.53660016784668,54.23098962322707,27.53660016784668C54.23098962322707,27.53660016784668,57.38199962322707,27.53660016784668,57.38199962322707,27.53660016784668ZM48.82328962322707,23.24990016784668C48.82328962322707,23.24990016784668,50.795649623227064,16.79087016784668,50.795649623227064,16.79087016784668C50.795649623227064,16.79087016784668,50.993089623227064,16.79087016784668,50.993089623227064,16.79087016784668C50.993089623227064,16.79087016784668,52.256659623227065,20.98421016784668,52.256659623227065,20.98421016784668C52.256659623227065,20.98421016784668,48.82328962322707,23.24990016784668,48.82328962322707,23.24990016784668Z" fill="#FAE6D5" fill-opacity="1"/></g></g></g></g></svg>