<svg width="59" height="58" viewBox="0 0 59 58" fill="none" xmlns="http://www.w3.org/2000/svg">
<path d="M8.98433 39.5202H12.3009C12.3009 35.5368 17.2562 30.6377 21.2852 30.6377H27.6762V36.9526C27.6762 40.936 22.7209 45.8351 18.6918 45.8351V47.4728V49.1105C22.7209 49.1105 27.6762 54.0096 27.6762 57.993H30.9927C30.9927 54.0096 35.948 49.1105 39.9771 49.1105V47.4728V45.8351C35.948 45.8351 30.9927 40.936 30.9927 36.9526V30.6377H37.3837C41.4127 30.6377 46.368 35.5368 46.368 39.5202H49.6846C49.6846 35.5368 54.6399 30.6377 58.6689 30.6377V27.3588C54.6399 27.3588 49.6846 22.4597 49.6846 18.4763H46.368C46.368 22.4597 41.4127 27.3588 37.3837 27.3588H30.9892V21.0438C30.9892 17.0605 35.9445 12.1614 39.9735 12.1614V10.5237V8.88596C35.9445 8.88244 30.9892 3.98336 30.9892 0H29.3327H27.6762C27.6762 3.98336 22.7209 8.88244 18.6918 8.88244V10.5202V12.1579C22.7209 12.1579 27.6762 17.057 27.6762 21.0403V27.3588H21.2852C17.2562 27.3588 12.3009 22.4597 12.3009 18.4763H8.98433C8.98433 22.4597 4.02906 27.3588 0 27.3588V30.6377C4.02906 30.6377 8.98433 35.5368 8.98433 39.5202Z" fill="#F39B4B"/>
</svg>
