<svg width="28" height="28" viewBox="0 0 28 28" fill="none" xmlns="http://www.w3.org/2000/svg">
<path d="M4.28781 19.0787H5.87067C5.87067 17.1557 8.23559 14.7906 10.1585 14.7906H13.2086V17.8392C13.2086 19.7622 10.8436 22.1273 8.92076 22.1273V22.9179V23.7085C10.8436 23.7085 13.2086 26.0736 13.2086 27.9966H14.7914C14.7914 26.0736 17.1564 23.7085 19.0792 23.7085V22.9179V22.1273C17.1564 22.1273 14.7914 19.7622 14.7914 17.8392V14.7906H17.8415C19.7644 14.7906 22.1293 17.1557 22.1293 19.0787H23.7122C23.7122 17.1557 26.0771 14.7906 28 14.7906V13.2077C26.0771 13.2077 23.7122 10.8426 23.7122 8.9196H22.1293C22.1293 10.8426 19.7644 13.2077 17.8415 13.2077H14.7897V10.1591C14.7897 8.23609 17.1547 5.87102 19.0775 5.87102V5.0804V4.28977C17.1547 4.28807 14.7897 1.923 14.7897 0H13.9991H13.2086C13.2086 1.923 10.8436 4.28807 8.92076 4.28807V5.0787V5.86932C10.8436 5.86932 13.2086 8.23439 13.2086 10.1574V13.2077H10.1585C8.23559 13.2077 5.87067 10.8426 5.87067 8.9196H4.28781C4.28781 10.8426 1.92289 13.2077 0 13.2077V14.7906C1.92289 14.7906 4.28781 17.1557 4.28781 19.0787Z" fill="#FAE6D5"/>
</svg>
